HIERARCHY
ROOT Hips
{
 OFFSET 0.000000 0.000000 0.000000
 CHANNELS 6 Xposition Yposition Zposition Yrotation Xrotation Zrotation
 JOINT Chest
 {
  OFFSET 0.000000 9.585900 0.002600
  CHANNELS 3 Yrotation Xrotation Zrotation
  JOINT Chest2
  {
   OFFSET 0.000000 9.601200 -0.005300
   CHANNELS 3 Yrotation Xrotation Zrotation
   JOINT Chest3
   {
    OFFSET 0.000000 9.561800 0.000000
    CHANNELS 3 Yrotation Xrotation Zrotation
    JOINT Chest4
    {
     OFFSET 0.000000 9.552100 0.000000
     CHANNELS 3 Yrotation Xrotation Zrotation
     JOINT Neck
     {
      OFFSET 0.000000 14.453000 0.000000
      CHANNELS 3 Yrotation Xrotation Zrotation
      JOINT Head
      {
       OFFSET 0.000000 8.936500 -0.011300
       CHANNELS 3 Yrotation Xrotation Zrotation
       End Site
       {
        OFFSET 0.000000 17.073600 -0.006000
       }
      }
     }
     JOINT RightCollar
     {
      OFFSET -2.921100 9.558500 0.000000
      CHANNELS 3 Yrotation Xrotation Zrotation
      JOINT RightShoulder
      {
       OFFSET -13.519700 0.000000 0.000000
       CHANNELS 3 Yrotation Xrotation Zrotation
       JOINT RightElbow
       {
        OFFSET 0.000000 -29.696600 0.000000
        CHANNELS 3 Yrotation Xrotation Zrotation
        JOINT RightWrist
        {
         OFFSET 0.000000 -24.004700 0.000000
         CHANNELS 3 Yrotation Xrotation Zrotation
         End Site
         {
          OFFSET 0.000000 -17.728500 0.000000
         }
        }
       }
      }
     }
     JOINT LeftCollar
     {
      OFFSET 2.921100 9.558500 0.000000
      CHANNELS 3 Yrotation Xrotation Zrotation
      JOINT LeftShoulder
      {
       OFFSET 13.519700 0.000000 0.000000
       CHANNELS 3 Yrotation Xrotation Zrotation
       JOINT LeftElbow
       {
        OFFSET 0.000000 -29.696600 0.000000
        CHANNELS 3 Yrotation Xrotation Zrotation
        JOINT LeftWrist
        {
         OFFSET 0.000000 -24.004700 0.000000
         CHANNELS 3 Yrotation Xrotation Zrotation
         End Site
         {
          OFFSET 0.000000 -17.728500 0.000000
         }
        }
       }
      }
     }
    }
   }
  }
 }
 JOINT RightHip
 {
  OFFSET -7.771700 -0.012900 -0.001300
  CHANNELS 3 Yrotation Xrotation Zrotation
  JOINT RightKnee
  {
   OFFSET 0.000000 -40.869800 0.001200
   CHANNELS 3 Yrotation Xrotation Zrotation
   JOINT RightAnkle
   {
    OFFSET 0.000000 -39.717900 0.002100
    CHANNELS 3 Yrotation Xrotation Zrotation
    JOINT RightToe
    {
     OFFSET 0.000000 -4.965400 11.033500
     CHANNELS 3 Yrotation Xrotation Zrotation
     End Site
     {
      OFFSET 0.000000 -1.423100 5.872300
     }
    }
   }
  }
 }
 JOINT LeftHip
 {
  OFFSET 7.771700 -0.012900 -0.001300
  CHANNELS 3 Yrotation Xrotation Zrotation
  JOINT LeftKnee
  {
   OFFSET 0.000000 -40.869800 0.001200
   CHANNELS 3 Yrotation Xrotation Zrotation
   JOINT LeftAnkle
   {
    OFFSET 0.000000 -39.717900 0.002100
    CHANNELS 3 Yrotation Xrotation Zrotation
    JOINT LeftToe
    {
     OFFSET 0.000000 -4.965400 11.033500
     CHANNELS 3 Yrotation Xrotation Zrotation
     End Site
     {
      OFFSET 0.000000 -1.423100 5.872300
     }
    }
   }
  }
 }
}
MOTION
Frames: 16
Frame Time: 0.008333
0.000000 85.388000 0.000000 0.000000 -5.767877 0.000000 0.000000 11.653817 0.000000 0.000000 -5.885947 0.000000 0.000000 -0.000000 0.000000 0.000000 -0.000000 0.000000 0.000000 12.528835 0.000000 0.000000 0.711642 0.000000 0.000000 -0.000000 0.000000 0.000000 0.000000 -90.000000 0.000000 -2.309062 0.000000 0.000000 2.309062 0.000000 0.000000 -0.000000 0.000000 0.000000 -0.000000 90.000000 0.000000 -2.309062 0.000000 0.000000 2.309062 0.000000 0.000000 8.520406 0.000000 0.000000 1.905762 0.000000 -0.000000 -4.658285 0.000000 0.000000 -0.000000 0.000000 0.000000 8.520406 0.000000 0.000000 1.905762 0.000000 -0.000000 -4.658285 0.000000 0.000000 -0.000000 0.000000
-268.295464 60.698962 -80.499368 160.857136 -35.789682 2.240561 3.096365 20.921267 2.482063 0.348473 2.766594 0.264517 0.572990 4.508842 0.442209 2.546514 17.847196 2.076970 1.280237 19.624729 -1.470714 1.712901 -4.973290 -1.866655 11.024034 3.564967 -10.183059 10.710711 -37.046541 -45.747435 127.045248 -77.918471 -126.749239 1.750613 -4.095173 -31.131607 -10.238786 -7.243919 -0.781799 -2.535870 -30.997499 15.640211 139.859381 -60.367259 -172.243532 0.365234 -8.521086 3.172276 0.924034 -33.403238 1.504260 -22.726538 65.985268 -18.783220 -0.307288 -1.240617 -2.242026 0.032448 -0.044331 0.019340 8.533138 -32.837389 -1.008115 24.722198 57.714099 25.844242 -13.746542 -13.291916 1.667877 -0.023777 0.054968 -0.015428
-268.304109 60.699024 -80.499908 160.871199 -35.767242 2.225283 3.090462 20.900391 2.488758 0.352794 2.774293 0.262246 0.571332 4.500882 0.444188 2.551128 17.843986 2.077762 1.268149 19.638339 -1.464412 1.701454 -4.958964 -1.856545 11.019258 3.567114 -10.180507 10.757330 -37.081126 -45.763110 127.230909 -77.812604 -126.983891 1.752784 -4.116184 -31.132412 -10.315670 -7.232462 -0.783552 -2.884712 -30.879166 15.851269 140.717379 -60.537905 -172.754807 0.304009 -8.473531 3.332565 0.923940 -33.422641 1.501356 -22.710686 65.984220 -18.766746 -0.309884 -1.244743 -2.235873 0.026011 -0.038798 0.022362 8.541227 -32.873937 -1.016346 24.698197 57.736173 25.832429 -13.712263 -13.287420 1.682081 -0.019175 0.048139 -0.018513
-268.313551 60.698948 -80.499891 160.888636 -35.738671 2.203585 3.089150 20.883370 2.498509 0.348679 2.774774 0.262982 0.572519 4.490447 0.445594 2.549531 17.842745 2.076826 1.260978 19.650636 -1.460147 1.647243 -4.864246 -1.839799 11.023315 3.580638 -10.179991 10.935044 -37.193882 -45.826155 126.858218 -77.747646 -126.669847 1.755810 -4.140688 -31.135376 -10.387764 -7.220606 -0.781015 -3.228139 -30.761760 16.057687 141.568220 -60.726551 -173.256317 0.236226 -8.410130 3.526068 0.918095 -33.448951 1.503065 -22.684542 65.983713 -18.739503 -0.316881 -1.243386 -2.229001 0.023254 -0.037131 0.020295 8.552669 -32.916781 -1.016461 24.650517 57.758739 25.794279 -13.676578 -13.283967 1.701270 -0.008334 0.046772 -0.016021
-268.322627 60.699093 -80.499533 160.905730 -35.708664 2.174987 3.083759 20.886430 2.511531 0.346261 2.756441 0.265010 0.572283 4.498215 0.441462 2.554972 17.819585 2.081434 1.243828 19.681600 -1.463827 1.623591 -4.818965 -1.841976 11.040805 3.614134 -10.174969 11.053562 -37.286194 -45.891257 126.756353 -77.662408 -126.624028 1.756969 -4.165291 -31.135437 -10.455740 -7.203538 -0.777093 -3.554394 -30.649725 16.250180 142.377757 -60.928746 -173.737001 0.164429 -8.321767 3.745577 0.903493 -33.477770 1.517561 -22.669294 65.980302 -18.728167 -0.308409 -1.256082 -2.216439 0.010980 -0.019780 0.015927 8.544561 -32.954682 -0.998756 24.641731 57.773895 25.763483 -13.659393 -13.271817 1.727065 -0.006973 0.030855 -0.009484
-268.333575 60.699824 -80.500059 160.904700 -35.680851 2.168523 3.078356 20.878184 2.511419 0.345150 2.754134 0.264426 0.579171 4.488067 0.441922 2.555084 17.822395 2.078382 1.230125 19.706650 -1.467925 1.608182 -4.796829 -1.850604 11.049447 3.623493 -10.171401 11.156289 -37.351808 -45.943701 126.781986 -77.564625 -126.700781 1.756004 -4.189853 -31.128656 -10.515466 -7.190672 -0.769010 -3.857178 -30.549113 16.428096 143.133253 -61.139993 -174.188977 0.089925 -8.206231 3.983665 0.904201 -33.503805 1.523916 -22.656635 65.971809 -18.729012 -0.307577 -1.249330 -2.204866 0.008729 -0.018615 0.017082 8.550224 -32.985091 -0.994463 24.639728 57.777094 25.758568 -13.668532 -13.278488 1.718999 -0.003892 0.034281 0.004164
-268.345784 60.701722 -80.502272 160.904965 -35.663347 2.174099 3.062521 20.880605 2.498506 0.343352 2.751862 0.263935 0.587539 4.478100 0.439810 2.508912 17.831175 2.071062 1.216978 19.749275 -1.496295 1.634713 -4.804035 -1.867887 11.100320 3.630653 -10.179232 11.261149 -37.416850 -45.999611 126.819099 -77.468356 -126.788687 1.756098 -4.215473 -31.113705 -10.523544 -7.185038 -0.772537 -4.132026 -30.458737 16.594120 143.859462 -61.353045 -174.625531 0.013126 -8.069922 4.223685 0.918619 -33.517115 1.512454 -22.651813 65.959351 -18.733057 -0.307878 -1.242516 -2.192776 0.007471 -0.016223 0.020300 8.557809 -33.001985 -1.000667 24.660845 57.771863 25.765932 -13.753586 -13.275479 1.681237 -0.009000 0.031076 0.046381
-268.356388 60.703635 -80.503872 160.908108 -35.646859 2.172350 3.052971 20.873653 2.495088 0.334360 2.759014 0.264435 0.583445 4.474865 0.437580 2.504169 17.824184 2.069250 1.207550 19.766749 -1.513286 1.636883 -4.784379 -1.889470 11.121690 3.644880 -10.187831 11.364559 -37.478399 -46.057112 126.860643 -77.372395 -126.882126 1.756750 -4.241066 -31.090725 -10.543475 -7.178799 -0.780113 -4.388344 -30.372012 16.743792 144.614412 -61.559254 -175.092055 -0.066023 -7.920780 4.449417 0.925694 -33.528012 1.509800 -22.652193 65.945740 -18.741969 -0.307847 -1.236815 -2.179569 0.008433 -0.015480 0.018886 8.563181 -33.019819 -0.997920 24.750788 57.748696 25.819446 -13.822146 -13.266279 1.683414 -0.024729 0.023863 0.040529
-268.366001 60.704536 -80.503627 160.915015 -35.621550 2.165039 3.042124 20.857352 2.495255 0.329290 2.762471 0.264957 0.575661 4.475029 0.437209 2.489585 17.815501 2.067385 1.207398 19.781033 -1.534796 1.650761 -4.782076 -1.901304 11.152663 3.661337 -10.203756 11.465314 -37.537238 -46.114174 126.897437 -77.271993 -126.970653 1.756712 -4.264329 -31.058018 -10.524952 -7.179744 -0.792559 -4.636184 -30.291048 16.866763 145.456507 -61.753747 -175.641961 -0.152566 -7.760236 4.654721 0.922526 -33.551503 1.513080 -22.653833 65.939741 -18.749391 -0.309748 -1.234147 -2.173939 0.010348 -0.015993 0.018113 8.565411 -33.046113 -0.990494 24.811208 57.728721 25.850249 -13.864891 -13.254202 1.680857 -0.023859 0.019523 0.047196
-268.374020 60.704736 -80.501858 160.924728 -35.591004 2.150051 3.025092 20.847182 2.500480 0.338502 2.746160 0.263593 0.559566 4.482553 0.438965 2.468982 17.806505 2.064164 1.216391 19.790919 -1.558417 1.661965 -4.776040 -1.911054 11.189882 3.679331 -10.221916 11.567835 -37.595185 -46.174455 126.920476 -77.167160 -127.045813 1.759991 -4.285501 -31.014507 -10.541776 -7.169249 -0.811768 -4.820661 -30.234021 16.981048 146.440049 -61.929364 -176.320918 -0.258277 -7.583143 4.841097 0.910712 -33.582619 1.529165 -22.664081 65.935026 -18.768533 -0.313121 -1.229667 -2.173574 0.013208 -0.018477 0.022696 8.561958 -33.084079 -0.967859 24.809781 57.732536 25.834931 -13.898907 -13.243559 1.670009 -0.018465 0.014260 0.057440
-268.381214 60.704839 -80.499556 160.930431 -35.560081 2.136748 3.013155 20.834853 2.505212 0.336156 2.742337 0.263386 0.541040 4.489040 0.439531 2.485758 17.786481 2.059094 1.209142 19.798518 -1.572309 1.664813 -4.761555 -1.931656 11.203065 3.692446 -10.229076 11.671116 -37.648311 -46.239259 126.929751 -77.058134 -127.106954 1.767393 -4.303221 -30.965633 -10.571573 -7.156965 -0.825230 -4.998136 -30.183092 17.078860 147.601163 -62.081472 -177.153268 -0.394016 -7.382113 5.008079 0.895873 -33.613935 1.547814 -22.674256 65.925746 -18.794882 -0.308405 -1.221332 -2.163068 0.008674 -0.021564 0.016454 8.555414 -33.119576 -0.954050 24.825043 57.729308 25.834726 -13.865036 -13.226869 1.657379 -0.009220 0.006101 0.062522
-268.388036 60.705120 -80.497167 160.937227 -35.530767 2.123736 2.993043 20.848613 2.509434 0.342879 2.715562 0.260980 0.539911 4.489426 0.439963 2.484671 17.772376 2.054929 1.204444 19.804098 -1.584275 1.671314 -4.755095 -1.952969 11.215255 3.695847 -10.233763 11.770522 -37.690623 -46.305619 126.933703 -76.942475 -127.160739 1.777655 -4.314360 -30.920711 -10.600690 -7.150843 -0.836959 -5.163083 -30.129200 17.158809 148.930272 -62.211033 -178.126981 -0.559282 -7.148027 5.150106 0.870966 -33.641356 1.579164 -22.710353 65.906708 -18.862801 -0.298201 -1.212780 -2.146804 0.008430 -0.022411 0.015961 8.548532 -33.152701 -0.943660 24.848942 57.716972 25.831766 -13.780764 -13.193933 1.650868 0.000840 -0.009667 0.069375
-268.396098 60.705404 -80.494609 160.944573 -35.498394 2.118096 2.984086 20.828790 2.508793 0.336677 2.722929 0.261023 0.540451 4.490924 0.439776 2.457197 17.774173 2.055899 1.221841 19.789060 -1.608757 1.669248 -4.760700 -1.985033 11.247603 3.691402 -10.249777 11.871398 -37.737359 -46.383983 126.938398 -76.822580 -127.211941 1.790888 -4.318692 -30.884109 -10.632648 -7.143871 -0.873821 -5.305138 -30.093046 17.253729 150.403418 -62.317502 -179.220471 -0.738724 -6.878470 5.259011 0.860970 -33.672011 1.585200 -22.719959 65.895075 -18.884185 -0.294330 -1.205919 -2.140438 0.008826 -0.022724 0.014486 8.545957 -33.186490 -0.942636 24.856798 57.705345 25.813300 -13.754381 -13.153993 1.640614 0.002883 -0.032736 0.094517
-268.406519 60.705548 -80.491880 160.952658 -35.459812 2.123634 2.970336 20.804645 2.495917 0.330411 2.748889 0.261910 0.546762 4.476397 0.436215 2.456277 17.753281 2.055316 1.219115 19.790129 -1.619358 1.670164 -4.773046 -1.997289 11.254821 3.700849 -10.248410 11.965542 -37.778095 -46.467518 126.947854 -76.701090 -127.264618 1.804678 -4.319164 -30.849958 -10.661452 -7.127747 -0.889888 -5.464854 -30.039477 17.323039 152.000793 -62.392760 179.582816 -0.919822 -6.579652 5.336347 0.860230 -33.707571 1.572027 -22.718842 65.883138 -18.892604 -0.291462 -1.200204 -2.140160 0.009660 -0.021016 0.018780 8.550900 -33.223442 -0.957753 24.847823 57.688395 25.783293 -13.792253 -13.101239 1.615950 0.003379 -0.040098 0.100323
-268.418948 60.705584 -80.488812 160.970668 -35.414149 2.130807 2.950325 20.790224 2.473827 0.330504 2.732347 0.262145 0.548651 4.491345 0.435245 2.449228 17.742878 2.053994 1.224931 19.776304 -1.628024 1.668999 -4.780749 -1.993977 11.268105 3.709680 -10.249554 12.027854 -37.821963 -46.534656 127.014784 -76.562834 -127.366018 1.817155 -4.316972 -30.813230 -10.671559 -7.134908 -0.894639 -5.630717 -29.969717 17.375057 153.694741 -62.429853 178.307755 -1.103983 -6.262127 5.396133 0.858429 -33.748222 1.544655 -22.708281 65.872656 -18.887660 -0.286618 -1.197297 -2.134712 0.009495 -0.018342 0.016384 8.552636 -33.265911 -0.976488 24.782032 57.678743 25.680040 -13.833889 -13.034992 1.611351 -0.010915 -0.055280 0.114716
-268.429994 60.706823 -80.486441 160.978070 -35.374718 2.133140 2.952657 20.819009 2.467669 0.330197 2.730338 0.261028 0.544206 4.440642 0.435468 2.447663 17.752460 2.050703 1.231071 19.755712 -1.629615 1.668877 -4.803737 -2.003168 11.273511 3.698903 -10.253316 12.043319 -37.841902 -46.554352 127.183597 -76.396896 -127.553182 1.829763 -4.310753 -30.780444 -10.686610 -7.146354 -0.894372 -5.797705 -29.896014 17.425325 155.471272 -62.435119 176.977347 -1.282431 -5.947927 5.447059 0.860093 -33.781997 1.529910 -22.705221 65.857538 -18.887738 -0.276978 -1.191244 -2.130653 0.008527 -0.015583 0.016282 8.557879 -33.302561 -0.988436 24.739411 57.678527 25.619378 -13.855766 -13.003836 1.612492 -0.001533 -0.067295 0.131031
